<!DOCTYPE svg PUBLIC "-//W3C//DTD SVG 20010904//EN" "http://www.w3.org/TR/2001/REC-SVG-20010904/DTD/svg10.dtd">
<svg version="1.0" xmlns="http://www.w3.org/2000/svg" width="941px" height="319px" viewBox="0 0 9410 3190" preserveAspectRatio="xMidYMid meet">
<g id="layer1" fill="#1f1f1f" stroke="none">
 <path d="M272 2603 l3 -588 170 3 c94 1 643 3 1222 5 831 2 1055 -1 1064 -10 10 -10 524 -13 2501 -13 l2487 0 3 -137 3 -138 178 -3 c97 -1 198 1 225 6 l47 8 -4 144 c-2 119 -1 143 10 132 10 -9 147 -12 616 -12 l603 0 0 595 0 595 -190 0 -190 0 0 -215 0 -215 -980 0 -980 0 0 215 0 215 -185 0 -185 0 0 -280 0 -280 -3020 0 -3020 0 0 280 0 280 -190 0 -190 0 2 -587z m8738 -3 c5 -8 10 -104 10 -212 l0 -198 -980 0 -980 0 0 210 0 209 78 4 c42 2 479 3 970 3 782 -1 894 -3 902 -16z m-3830 -269 l0 -138 -61 -7 c-81 -8 -2825 -8 -3086 1 l-203 6 0 133 0 133 88 4 c48 1 801 4 1675 5 l1587 2 0 -139z"/>
 </g>
<g id="layer2" fill="#393939" stroke="none">
 <path d="M7042 2968 l3 -223 995 0 995 0 3 223 2 222 -1000 0 -1000 0 2 -222z m1268 7 l0 -75 -270 0 -270 0 0 68 c0 38 3 72 7 75 3 4 125 7 270 7 l263 0 0 -75z"/>
 <path d="M7130 2631 l-85 -6 0 -225 0 -225 995 0 995 0 0 217 c0 165 -3 220 -13 230 -10 10 -189 13 -910 14 -493 1 -935 -2 -982 -5z m1180 -236 l0 -75 -270 0 -270 0 0 68 c0 38 3 72 7 75 3 4 125 7 270 7 l263 0 0 -75z"/>
 <path d="M1910 2481 l-95 -6 0 -150 0 -150 160 -6 c215 -8 3095 -9 3165 -1 l55 7 0 155 0 155 -1595 1 c-877 0 -1638 -2 -1690 -5z m1868 -158 l3 -73 -266 0 -265 0 0 68 c0 38 3 72 7 75 4 4 122 6 262 5 l256 -3 3 -72z"/>
 <path d="M638 2043 c-24 -3 -42 -11 -48 -23 -7 -12 -9 -190 -8 -502 l3 -483 905 0 905 0 3 427 2 428 173 2 172 3 3 61 c2 47 -1 64 -14 75 -14 12 -176 14 -1038 15 -562 0 -1038 -1 -1058 -3z m1569 -146 c11 -12 17 -410 8 -574 l-7 -133 -709 0 -709 0 0 353 c0 195 3 357 7 361 10 10 1400 3 1410 -7z"/>
 <path d="M8160 2025 c-9 -11 -11 -49 -8 -145 l5 -129 -26 -3 c-37 -4 -32 -22 7 -26 59 -6 63 5 61 160 -2 142 -11 176 -39 143z"/>
 <path d="M7835 1730 c-3 -5 0 -13 9 -16 21 -8 61 -1 61 11 0 14 -62 19 -70 5z"/>
 <path d="M7945 1730 c-3 -5 0 -13 8 -16 23 -8 92 0 92 11 0 14 -92 19 -100 5z"/>
 <path d="M7903 1598 c-6 -7 -13 -35 -14 -63 l-4 -50 59 2 c86 3 88 4 84 65 l-3 53 -56 3 c-37 2 -59 -2 -66 -10z"/>
 <path d="M7727 1413 c-11 -10 -8 -102 3 -124 9 -16 22 -19 74 -19 81 0 99 16 94 86 l-3 49 -68 -3 c-39 -2 -73 1 -81 7 -7 6 -16 8 -19 4z"/>
 <path d="M8014 1301 c-10 -10 -3 -118 8 -129 7 -7 39 -12 73 -12 80 0 97 16 93 90 l-3 51 -83 2 c-46 1 -86 0 -88 -2z"/>
 </g>
<g id="layer3" fill="#555555" stroke="none">
 <path d="M7768 3059 c-15 -8 -18 -24 -18 -82 0 -44 5 -78 12 -85 17 -17 539 -17 556 0 7 7 12 41 12 83 0 42 -5 76 -12 83 -15 15 -524 17 -550 1z"/>
 <path d="M7768 2479 c-15 -8 -18 -24 -18 -82 0 -44 5 -78 12 -85 17 -17 539 -17 556 0 7 7 12 41 12 83 0 42 -5 76 -12 83 -15 15 -524 17 -550 1z"/>
 <path d="M3248 2409 c-15 -8 -18 -24 -18 -83 0 -50 4 -77 14 -85 9 -8 92 -11 282 -9 l269 3 3 80 c2 66 0 82 -14 92 -22 16 -509 18 -536 2z"/>
 <path d="M8164 2016 c-9 -24 12 -44 28 -28 10 10 8 16 -5 29 -15 15 -17 15 -23 -1z"/>
 <path d="M787 1918 c-16 -12 -17 -40 -15 -378 l3 -365 723 -3 c681 -2 723 -1 730 15 4 10 7 174 7 365 0 271 -3 350 -13 360 -19 19 -1409 25 -1435 6z"/>
 <path d="M8095 1739 c-49 -4 -149 -5 -221 -3 -110 4 -133 2 -144 -11 -17 -20 -7 -310 11 -331 14 -17 111 -19 140 -4 13 7 19 21 19 44 0 18 3 61 6 95 l7 61 47 0 47 0 6 -141 c4 -84 11 -146 18 -155 15 -18 132 -19 146 -1 13 15 28 443 16 449 -4 2 -48 1 -98 -3z"/>
 </g>

</svg>