<!DOCTYPE svg PUBLIC "-//W3C//DTD SVG 20010904//EN" "http://www.w3.org/TR/2001/REC-SVG-20010904/DTD/svg10.dtd">
<svg version="1.0" xmlns="http://www.w3.org/2000/svg" width="566px" height="768px" viewBox="0 0 5660 7680" preserveAspectRatio="xMidYMid meet">
<g id="layer1" fill="#4d4d4d" stroke="none">
 <path d="M170 4830 l0 -2850 -70 -70 c-39 -39 -77 -70 -85 -70 -20 0 -20 -58 -1 -97 8 -15 22 -49 31 -75 54 -156 211 -221 364 -152 l57 25 100 -47 c94 -45 97 -48 69 -54 -86 -21 -342 -6 -510 31 -117 25 -125 25 -125 -6 0 -21 7 -27 53 -39 207 -60 443 -84 667 -69 l125 9 265 -127 c146 -69 344 -163 440 -207 96 -44 339 -159 540 -254 201 -96 391 -185 422 -198 32 -14 58 -28 58 -32 0 -3 -23 -28 -51 -55 -134 -128 -143 -208 -32 -284 87 -60 190 -84 427 -99 151 -10 162 -12 181 -34 41 -49 107 -61 154 -27 15 11 42 21 60 23 32 3 34 7 80 118 60 145 72 170 82 170 5 0 38 -11 75 -25 36 -14 74 -25 84 -25 21 0 34 30 56 125 29 128 80 175 191 175 96 0 98 2 132 97 17 46 31 90 31 97 0 11 -318 137 -949 377 -80 31 -84 31 -95 13 -21 -35 -75 -169 -75 -184 0 -8 19 -29 42 -45 49 -35 87 -104 87 -157 0 -23 -14 -68 -35 -113 -19 -40 -38 -87 -41 -103 -6 -29 -4 -30 76 -63 76 -31 81 -35 75 -59 -4 -14 -10 -29 -15 -34 -10 -10 -380 162 -387 180 -2 7 5 42 16 79 58 187 4 353 -169 525 -136 135 -291 222 -523 290 -161 48 -256 61 -482 67 -237 6 -382 -8 -551 -53 -54 -15 -108 -28 -119 -31 -12 -2 -90 29 -186 73 l-166 78 1 80 c0 61 -4 90 -18 116 -33 63 -76 108 -122 130 l-45 22 3 2844 3 2844 -97 0 -98 0 0 -2850z m1743 -3405 c340 -60 599 -209 692 -399 25 -51 27 -63 23 -153 -3 -98 -24 -168 -54 -180 -6 -2 -308 136 -670 308 -802 379 -782 369 -763 379 12 7 175 42 249 53 74 12 441 6 523 -8z m939 -1016 c95 -44 179 -86 186 -93 10 -9 8 -24 -10 -74 l-23 -62 -125 0 c-131 0 -200 12 -291 52 -28 11 -56 30 -64 42 -20 27 -19 86 1 114 24 34 113 102 135 102 10 0 96 -36 191 -81z"/>
 </g>

</svg>